Coordinates
version=1
nRows=9
nColumns=36
inDegrees=yes

Units are S.I. units (second, meters, Newtons, ...)
If the header above contains a line with 'inDegrees', this indicates whether rotational values are in degrees (yes) or radians (no).

endheader
time	pelvis_tilt	pelvis_list	pelvis_rotation	pelvis_tx	pelvis_ty	pelvis_tz	hip_flexion_r	hip_adduction_r	hip_rotation_r	knee_angle_r	knee_angle_r_beta	ankle_angle_r	subtalar_angle_r	mtp_angle_r	hip_flexion_l	hip_adduction_l	hip_rotation_l	knee_angle_l	knee_angle_l_beta	ankle_angle_l	subtalar_angle_l	mtp_angle_l	lumbar_extension	lumbar_bending	lumbar_rotation	arm_flex_r	arm_add_r	arm_rot_r	elbow_flex_r	pro_sup_r	arm_flex_l	arm_add_l	arm_rot_l	elbow_flex_l	pro_sup_l
      3.28333330	    -23.49383366	     -0.69640711	     -4.26840113	      0.00593724	      1.13817078	      0.04222543	     43.32482463	      5.58926417	      5.67633965	     39.12330028	      0.68283040	     18.44488652	    -26.13170311	     -7.49999987	     45.13521276	     -3.76889876	      0.97946182	     43.50124295	      0.75923992	     25.65211491	    -19.05760326	     -7.49999987	    -13.28826909	      1.80464616	      1.80276913	     -1.49486745	    -10.56122034	      4.24291976	     10.00973545	     67.96711172	     -6.69618710	    -10.90038377	     40.40883120	     10.00016511	     50.24315424
      3.30000000	    -24.26644025	     -0.69484153	     -4.06645636	      0.01583166	      1.11999350	      0.03901127	     46.24799799	      5.54573172	      5.74872321	     44.59446926	      0.77832032	     21.96006723	    -24.84622277	     -7.49999987	     48.06803824	     -3.41539627	      1.56130495	     48.76665445	      0.85113869	     28.61799778	    -19.26343727	     -7.49999987	    -14.11594907	      2.07026399	      1.81981277	      1.74222081	    -11.26209442	      4.74025736	     12.98533656	     67.08150651	     -2.30447238	    -10.98464080	     38.69646172	     11.89440686	     51.29269946
      3.31666670	    -25.21669511	     -0.54827162	     -3.90050445	      0.01560162	      1.10310001	      0.03754856	     49.22557468	      5.30859307	      5.49415558	     49.97548724	      0.87223680	     25.78200453	    -23.36548299	     -7.49999987	     50.97279113	     -2.90200235	      2.04225906	     53.33647100	      0.93089703	     31.29858899	    -19.37886952	     -7.49999987	    -14.62038292	      2.25233696	      1.21727407	      6.31881435	    -12.12911040	      9.20776986	     15.78920937	     69.58960563	      2.25616903	    -10.93986613	     32.37946747	     15.32319645	     52.70045785
      3.33333330	    -26.34430453	     -0.46639616	     -3.55470256	      0.02648483	      1.08140536	      0.03745638	     52.40633288	      5.08868497	      5.21357315	     55.59245410	      0.97027136	     29.66777070	    -22.29510992	     -7.49999987	     53.98180285	     -2.35894827	      2.57871510	     58.10696934	      1.01415793	     34.40362860	    -19.24645289	     -7.49999987	    -14.11839675	      2.46891515	      0.93513178	     10.57481552	    -12.18667840	      8.94801776	     19.37580865	     73.71522022	      6.84966337	    -10.71495198	     23.64771617	     19.85466948	     65.55498495
      3.35000000	    -27.33332660	     -0.41042020	     -2.99359339	      0.03932076	      1.07245240	      0.03482865	     54.30015104	      4.82164841	      5.03680458	     59.56497534	      1.03960494	     33.67202867	    -19.94137619	     -7.49999987	     55.91519661	     -1.65890315	      3.14503550	     61.50907791	      1.07353593	     36.74606037	    -18.81904965	     -7.49999987	    -13.03155235	      2.79047156	      0.89968895	     14.79421587	    -12.11750056	      9.56369889	     23.11213455	     74.25321894	     12.76547425	    -10.36953118	     23.45878605	     23.87344428	     65.82266391
      3.36666670	    -27.61536753	     -0.19058864	     -2.57381450	      0.04809109	      1.06996500	      0.03494732	     54.86274406	      4.39607698	      4.89442821	     62.48955929	      1.09064856	     35.84526941	    -19.15575286	     -7.49999987	     56.46344831	     -0.79493463	      3.54378012	     63.26813717	      1.10423731	     39.11675741	    -18.12325252	     -7.49999987	    -12.62334729	      2.73437738	      1.01940598	     19.67509623	    -12.18979154	     10.57649112	     26.91128645	     75.29190011	     19.80156910	     -9.87662898	     23.05800989	     28.14004883	     66.30967933
      3.38333330	    -27.80188907	      0.11372618	     -2.25884252	      0.03759396	      1.08339927	      0.03574956	     55.07350791	      4.16996055	      4.95090458	     63.31272909	      1.10501558	     34.96648327	    -20.27173391	     -7.49999987	     56.21416064	      0.20241049	      4.26167732	     62.64967717	      1.09344314	     37.95366051	    -19.82492487	     -7.49999987	    -13.19289490	      2.29027905	      0.84252724	     26.59708103	    -11.61538689	     10.58378580	     31.53123624	     85.65043607	     29.25611230	     -9.34094124	     22.93831971	     31.41320643	     72.81492975
      3.40000000	    -26.84473133	      0.26642444	     -2.15067417	      0.04642397	      1.10027486	      0.03643634	     52.69268855	      4.14732442	      5.20046717	     61.43699936	      1.07227792	     33.58183806	    -20.90080082	     -7.49999987	     53.64676122	      0.78255354	      5.17241251	     60.24166425	      1.05141539	     35.71718016	    -21.86682493	     -7.49999987	    -14.78876361	      1.90409577	      0.92922969	     32.96933952	    -10.97223407	     13.10861068	     38.59204956	     84.72043473	     38.67324104	     -8.53925241	     24.06221039	     34.99430529	     72.84549999
      3.41666670	    -26.10550381	      0.56621300	     -1.89714786	      0.06383387	      1.09569763	      0.03298764	     50.31965628	      3.71976472	      5.61160845	     59.46483604	      1.03785718	     33.06426785	    -20.77080262	     -7.49999987	     51.33961332	      1.51034540	      5.61838630	     58.52080997	      1.02138081	     34.41022315	    -23.23038477	     -7.49999987	    -14.92353074	      1.67370629	      1.10873780	     35.40601626	    -11.30797537	     12.48078757	     50.85488322	     84.84061128	     44.99315516	     -7.55291303	     23.85458807	     41.92257908	     74.10539587
